<?xml version="1.0" standalone="no"?>
<!DOCTYPE svg PUBLIC "-//W3C//DTD SVG 20010904//EN"
 "http://www.w3.org/TR/2001/REC-SVG-20010904/DTD/svg10.dtd">
<svg version="1.0" xmlns="http://www.w3.org/2000/svg"
 width="560.000000pt" height="560.000000pt" viewBox="0 0 560.000000 560.000000"
 preserveAspectRatio="xMidYMid meet">
<metadata>
Created by potrace 1.16, written by Peter Selinger 2001-2019
</metadata>
<g transform="translate(0.000000,560.000000) scale(0.100000,-0.100000)"
fill="#7a7a7a" stroke="none">
<path d="M2540 5594 c-240 -29 -411 -65 -599 -126 -432 -140 -801 -366 -1122
-687 -460 -460 -738 -1043 -809 -1693 -13 -125 -13 -451 0 -576 71 -650 349
-1233 809 -1693 460 -460 1043 -738 1693 -809 125 -13 451 -13 576 0 844 92
1584 542 2055 1252 218 327 368 719 432 1128 22 140 31 532 16 682 -68 658
-346 1244 -810 1709 -429 428 -960 697 -1571 794 -101 17 -579 30 -670 19z
m670 -348 c688 -121 1273 -504 1664 -1091 135 -202 269 -509 331 -755 168
-675 42 -1394 -345 -1970 -133 -198 -322 -405 -505 -553 -355 -286 -785 -471
-1240 -532 -160 -22 -470 -22 -630 0 -787 105 -1468 571 -1859 1271 -296 530
-380 1185 -231 1784 240 960 1045 1699 2016 1849 188 29 190 29 434 26 182 -3
245 -8 365 -29z"/>
<path d="M2650 2863 c-359 -1017 -655 -1853 -657 -1858 -3 -9 294 -121 302
-113 2 1 297 833 655 1848 359 1015 655 1850 657 1856 3 9 -268 114 -296 114
-4 0 -302 -831 -661 -1847z"/>
<path d="M1533 4279 c-177 -23 -331 -91 -444 -197 l-73 -68 93 -122 c52 -67
96 -122 98 -122 3 0 30 23 61 51 198 181 547 197 658 29 20 -30 29 -58 34
-112 3 -39 4 -83 2 -98 l-4 -26 -206 -12 c-114 -7 -250 -20 -302 -31 -296 -59
-486 -212 -545 -438 -55 -210 52 -440 251 -545 97 -51 185 -70 319 -70 141 1
236 25 378 95 l107 53 0 -53 0 -53 196 0 195 0 -3 613 c-4 544 -6 619 -21 671
-57 195 -218 352 -417 409 -119 34 -250 43 -377 26z m425 -1072 c-5 -116 -33
-181 -111 -255 -187 -176 -497 -175 -578 2 -65 144 51 293 254 326 101 16 115
17 281 19 l158 1 -4 -93z"/>
<path d="M3352 2553 c-205 -582 -372 -1061 -372 -1065 0 -5 76 -8 169 -8 l170
0 66 208 c36 114 80 251 98 305 l31 97 276 0 275 0 110 -305 110 -305 178 0
c97 0 177 2 177 4 0 2 -174 458 -386 1013 -212 554 -395 1032 -406 1061 l-19
52 -53 0 -52 0 -372 -1057z m522 74 c53 -141 96 -259 96 -262 0 -3 -84 -5
-186 -5 -145 0 -185 3 -182 13 3 6 43 125 89 264 46 139 84 251 86 250 1 -2
45 -118 97 -260z"/>
</g>
</svg>
