<?xml version="1.0" standalone="no"?>
<!DOCTYPE svg PUBLIC "-//W3C//DTD SVG 20010904//EN"
 "http://www.w3.org/TR/2001/REC-SVG-20010904/DTD/svg10.dtd">
<svg version="1.0" xmlns="http://www.w3.org/2000/svg"
 width="806.000000pt" height="526.000000pt" viewBox="0 0 806.000000 526.000000"
 preserveAspectRatio="xMidYMid meet">
<metadata>
Created by potrace 1.16, written by Peter Selinger 2001-2019
</metadata>
<g transform="translate(-170.0,646.0) scale(0.15,-0.15)"
fill="#000000" stroke="none">
<path d="M3664 5230 c-922 -73 -1703 -583 -2105 -1376 -197 -388 -282 -761
-282 -1234 0 -243 12 -379 53 -580 204 -1001 979 -1776 1980 -1980 201 -41
337 -53 580 -53 243 0 379 12 580 53 1001 204 1777 979 1980 1980 27 132 50
320 49 388 -1 31 -4 44 -6 27 -36 -303 -110 -557 -238 -820 -238 -489 -628
-880 -1120 -1121 -235 -115 -478 -190 -745 -231 -144 -22 -511 -24 -645 -4
-417 62 -772 198 -1090 419 -346 240 -631 575 -815 959 -339 705 -313 1557 67
2238 368 661 998 1106 1748 1236 170 30 522 37 695 15 578 -76 1088 -333 1488
-750 60 -64 83 -83 51 -46 -346 412 -868 718 -1419 830 -234 47 -572 68 -806
50z"/>
<path d="M3815 5019 c-301 -31 -617 -131 -890 -282 -446 -247 -808 -648 -1009
-1119 -134 -316 -181 -552 -181 -913 1 -366 52 -611 195 -935 170 -384 472
-746 819 -979 299 -201 611 -324 961 -378 141 -22 508 -24 645 -5 275 40 486
106 739 233 237 119 424 258 621 461 190 195 301 355 426 613 109 225 176 447
211 695 16 122 16 476 -1 600 -53 391 -207 768 -449 1094 -96 130 -328 362
-458 458 -315 233 -672 384 -1049 443 -121 19 -456 27 -580 14z m-1455 -1879
l0 -50 -80 0 -80 0 0 -75 0 -75 61 0 60 0 -3 -47 -3 -48 -57 -3 -58 -3 0 -69
0 -70 80 0 80 0 0 -50 0 -50 -130 0 -130 0 0 295 0 295 130 0 130 0 0 -50z
m211 -115 c25 -88 56 -177 68 -198 27 -49 27 -60 -8 -99 -25 -30 -27 -36 -17
-65 6 -18 14 -33 19 -33 67 -1 77 1 77 17 0 13 -3 14 -12 5 -18 -18 -56 -14
-68 7 -15 28 21 71 43 52 20 -16 36 -7 34 19 -1 10 -5 16 -10 13 -4 -3 -6 -11
-3 -19 3 -8 2 -14 -3 -14 -14 0 -21 13 -12 24 4 6 11 26 15 45 7 37 -6 61 -34
61 -13 0 -16 6 -12 25 5 29 10 30 40 9 13 -9 26 -13 29 -10 4 3 1 6 -5 6 -6 0
-9 10 -7 22 3 12 -3 26 -13 34 -18 13 -23 35 -10 45 5 3 -2 10 -15 16 -21 10
-23 8 -23 -16 0 -14 4 -29 10 -33 7 -5 5 -8 -4 -8 -9 0 -11 -3 -5 -8 7 -5 7
-18 -2 -42 -10 -30 -12 -12 -12 138 l-1 173 48 -3 47 -3 3 -292 2 -293 -55 0
-54 0 -53 163 -53 162 -3 -162 -2 -163 -50 0 -50 0 0 295 0 296 57 -3 57 -3
47 -160z m504 115 l0 -45 -47 -3 -48 -3 0 -245 0 -244 -50 0 -50 0 0 245 0
245 -45 0 -45 0 0 50 0 51 143 -3 142 -3 0 -45z m269 27 c43 -29 58 -78 54
-173 -2 -64 -8 -89 -24 -110 l-21 -28 33 -128 32 -128 -54 0 c-60 0 -51 -15
-90 143 -15 59 -19 67 -40 67 -24 0 -24 -1 -24 -105 l0 -105 -50 0 -50 0 0
296 0 296 103 -4 c78 -2 110 -8 131 -21z m326 8 c16 -8 39 -29 52 -47 22 -32
23 -40 23 -233 0 -177 -2 -204 -18 -228 -63 -97 -202 -86 -248 19 -19 41 -20
63 -17 222 2 147 6 183 21 210 35 64 121 91 187 57z m361 -4 c46 -22 69 -78
69 -165 0 -118 -45 -179 -140 -192 l-50 -7 0 -103 0 -104 -50 0 -50 0 0 288
c0 159 3 292 8 296 11 12 183 1 213 -13z m229 -276 l0 -295 -50 0 -50 0 0 295
0 295 50 0 50 0 0 -295z m254 281 c49 -20 77 -66 83 -136 l6 -60 -52 0 -51 0
0 36 c0 19 -5 44 -10 55 -12 21 -50 25 -68 7 -15 -15 -17 -330 -2 -359 6 -11
21 -19 35 -19 30 0 45 26 45 79 l0 41 50 0 50 0 0 -50 c0 -64 -19 -109 -59
-143 -62 -52 -168 -29 -208 45 -15 28 -18 59 -18 218 0 214 6 237 69 275 47
28 82 31 130 11z m424 -228 l2 -238 25 -6 c53 -13 55 -2 55 252 l0 234 50 0
50 0 0 -245 c0 -272 -3 -289 -63 -325 -64 -39 -156 -18 -198 47 -17 25 -19 51
-19 276 l0 248 48 -3 47 -3 3 -237z m352 3 c4 -209 7 -235 23 -245 12 -8 22
-8 35 0 15 10 17 35 20 248 l2 237 53 -3 52 -3 0 -240 c0 -212 -2 -244 -18
-273 -40 -73 -140 -95 -205 -46 -58 45 -62 66 -62 329 l0 236 48 -3 47 -3 5
-234z m350 -56 l0 -295 -50 0 -50 0 0 295 0 295 50 0 50 0 0 -295z m260 277
c20 -9 44 -34 57 -57 21 -37 23 -52 23 -218 0 -188 -7 -224 -49 -261 l-21 -19
0 36 c0 21 -4 37 -10 37 -5 0 -10 -9 -10 -20 0 -10 -10 -24 -22 -30 -20 -10
-21 -9 -7 2 9 8 18 22 20 33 6 28 32 25 39 -3 5 -23 6 -23 22 -5 16 17 16 20
-8 51 -28 35 -44 41 -44 15 0 -30 -31 -53 -72 -53 -38 0 -38 0 -38 40 0 41 -5
46 -30 30 -13 -8 -12 -11 4 -23 26 -19 15 -46 -24 -60 -22 -8 -30 -17 -28 -31
4 -29 22 -30 50 -1 l25 25 -2 -23 c-3 -22 -1 -23 64 -19 48 2 62 0 51 -7 -8
-6 -57 -11 -107 -11 l-93 0 0 295 0 295 88 0 c63 0 97 -5 122 -18z m-1270
-741 c0 -51 10 -81 26 -81 18 0 18 -36 1 -43 -10 -4 -12 -18 -7 -57 7 -52 0
-66 -25 -56 -9 3 -15 19 -15 40 0 52 -9 66 -42 66 -22 0 -33 -7 -46 -30 -18
-32 -21 -34 -39 -22 -9 5 -9 16 0 45 7 20 15 37 19 37 4 0 20 24 34 53 43 83
53 95 74 90 15 -4 20 -14 20 -42z m400 19 c0 -10 -10 -20 -24 -24 -39 -10 -40
-34 -1 -77 44 -49 46 -86 6 -132 -39 -44 -140 -94 -152 -75 -14 21 -11 24 33
44 52 23 108 71 108 91 0 9 -16 33 -35 54 -49 55 -44 92 17 129 35 21 48 18
48 -10z m-1618 3 c20 -18 24 -76 7 -120 -37 -98 -139 -96 -139 4 0 96 78 165
132 116z m212 -5 c42 -60 -8 -188 -72 -188 -55 0 -79 64 -51 137 26 69 92 96
123 51z m731 -28 c-7 -52 -5 -54 33 -44 18 5 22 13 22 50 0 37 3 44 19 44 16
0 20 -9 23 -60 1 -33 0 -60 -4 -60 -4 0 -8 -30 -10 -67 -3 -60 -5 -68 -22 -68
-18 0 -20 6 -17 58 2 51 0 57 -18 57 -20 0 -51 -24 -51 -41 0 -5 -9 -9 -21 -9
-15 0 -19 5 -15 18 2 9 10 52 17 95 10 66 15 77 31 77 18 0 19 -5 13 -50z
m497 33 c20 -18 24 -76 7 -120 -37 -98 -139 -96 -139 4 0 96 78 165 132 116z
m-1671 -9 c10 -13 10 -17 -2 -24 -7 -5 -23 -7 -34 -4 -29 7 -55 -25 -62 -75
-9 -69 32 -87 74 -32 18 23 16 28 -9 27 -13 -1 -24 6 -26 15 -2 12 14 22 56
37 33 12 62 22 66 22 14 0 5 -40 -12 -49 -15 -8 -22 -31 -32 -101 -11 -79 -15
-90 -33 -90 -17 0 -19 5 -14 40 5 36 3 39 -13 30 -29 -16 -49 -12 -75 15 -18
17 -25 35 -25 62 0 46 31 117 57 132 27 15 69 13 84 -5z m643 6 c32 -12 49
-45 42 -77 -13 -50 -140 -164 -166 -148 -6 4 -9 19 -6 33 4 15 11 62 16 105 5
43 12 83 15 88 8 12 67 12 99 -1z m432 2 c8 -5 7 -20 -3 -54 -10 -37 -18 -48
-33 -48 -17 0 -19 5 -14 24 5 22 3 24 -18 19 -36 -9 -68 -43 -68 -74 0 -34 23
-53 54 -45 30 8 58 -27 30 -38 -34 -13 -75 -5 -99 19 -66 65 6 188 103 176 7
-1 15 5 18 14 7 17 13 18 30 7z"/>
<path d="M3127 3173 c-14 -14 -6 -23 21 -24 l27 -1 -25 -7 c-14 -3 -26 -14
-27 -25 -1 -15 4 -17 30 -12 24 4 28 3 17 -5 -15 -10 27 -7 104 8 18 3 26 1
22 -5 -3 -6 3 -17 15 -25 14 -10 16 -16 8 -19 -9 -3 -7 -7 5 -11 11 -4 15 -3
10 4 -4 7 -1 10 6 7 7 -2 14 -12 16 -21 3 -20 0 -21 -29 -6 -19 9 -19 8 3 -11
15 -13 18 -20 8 -17 -19 7 -18 -17 2 -36 12 -10 12 -9 2 4 -10 13 -10 18 2 22
15 6 30 -18 20 -34 -3 -5 -15 -9 -28 -9 -16 0 -28 -11 -42 -37 -15 -28 -27
-39 -48 -41 -40 -5 -73 5 -98 30 -16 16 -20 17 -15 5 4 -10 2 -17 -5 -17 -7 0
-6 -5 2 -15 10 -12 10 -15 0 -15 -8 0 -11 -2 -8 -5 8 -9 38 6 32 16 -7 12 -7
12 51 -10 l50 -19 -65 -4 c-59 -3 -65 -5 -68 -25 -3 -17 2 -23 15 -23 34 0 63
12 63 26 0 8 9 14 20 14 11 0 29 6 40 13 17 10 22 9 31 -3 9 -13 10 -13 8 0
-4 24 32 87 57 101 23 12 35 59 15 59 -6 0 -9 9 -8 20 1 11 4 20 8 20 9 0 6
20 -4 38 -5 6 -4 12 1 12 6 0 8 9 5 20 -8 32 -104 70 -178 70 -34 0 -65 -3
-68 -7z"/>
<path d="M3572 3078 c-9 -9 -12 -60 -12 -184 0 -187 4 -203 55 -190 l25 6 -2
188 -3 187 -25 3 c-14 2 -31 -3 -38 -10z"/>
<path d="M5083 2813 c-18 -7 -16 -23 3 -23 8 0 12 -5 9 -11 -5 -7 -16 -2 -31
12 -29 27 -45 18 -19 -11 18 -20 18 -21 -1 -14 -20 8 -20 6 10 -16 13 -10 17
-10 12 -2 -4 6 -3 12 1 12 15 0 35 -42 25 -52 -6 -6 -12 -5 -17 3 -6 8 -4 10
5 4 8 -5 11 -3 8 6 -3 8 -11 13 -18 11 -7 -1 -19 3 -29 10 -9 7 -4 -4 12 -24
31 -42 37 -64 6 -24 -18 23 -22 24 -36 11 -8 -9 -13 -19 -9 -22 3 -3 1 -12 -5
-20 -13 -15 -53 -18 -44 -3 3 6 -1 7 -9 4 -10 -4 -16 -1 -17 7 -1 8 -2 21 -3
29 0 8 -6 14 -13 13 -7 -2 -10 3 -7 11 3 8 -5 23 -17 35 l-23 21 22 0 c12 0
22 4 22 9 0 12 -57 -6 -66 -20 -3 -5 3 -6 13 -2 14 5 16 3 6 -7 -10 -11 -9
-16 5 -26 14 -11 15 -15 3 -26 -8 -8 -11 -8 -7 -1 3 6 2 14 -3 17 -19 12 -2
-59 18 -75 17 -14 34 -16 82 -12 50 5 60 3 54 -7 -5 -9 -4 -11 4 -6 6 4 9 12
6 17 -4 5 -3 18 0 30 5 16 10 18 21 8 8 -6 14 -16 14 -21 0 -6 -7 -5 -15 2
-13 11 -14 10 -9 -4 10 -27 23 -19 46 29 19 38 20 49 10 65 -7 11 -8 20 -3 20
5 0 9 11 9 25 0 25 -3 27 -25 18z"/>
<path d="M5790 2895 l0 -195 33 0 c55 0 57 8 57 193 0 186 -3 196 -62 197
l-28 0 0 -195z"/>
</g>
</svg>
