<?xml version="1.0" standalone="no"?>
<!DOCTYPE svg PUBLIC "-//W3C//DTD SVG 20010904//EN"
 "http://www.w3.org/TR/2001/REC-SVG-20010904/DTD/svg10.dtd">
 <svg class="isotype" width="38" height="33" viewBox="0 0 38 33" fill="#7a7a7a" xmlns="http://www.w3.org/2000/svg">
       <path d="M35.7917 14.6376C35.4326 13.3022 34.9977 11.9942 34.6516 10.6555C34.161 8.75183 34.3127 6.06307 33.0556 4.48801C32.4634 3.745 31.947 3.12502 31.4984 2.25332C31.0909 1.45769 30.7077 0.61351 30.0412 0C30.0089 0.917028 31.1659 3.55885 30.6391 4.27434C30.3438 4.67741 29.5619 4.39979 29.1964 4.31643C28.4105 4.13917 27.6787 4.04124 26.8718 4.02262C26.0028 4.004 24.9579 4.46616 24.1301 4.30509C23.4306 4.16912 22.4688 3.19139 21.866 2.76889C20.8163 2.03155 19.7472 0.777005 18.5958 0.285711C19.08 1.46741 19.9909 2.59083 20.7776 3.59851C21.4562 4.46616 21.2843 4.7454 20.7445 5.6689C20.3443 6.35687 20.0563 7.07318 19.8134 7.83318C19.6916 8.21521 19.6141 8.92989 19.3269 9.23098C19.0186 9.54826 18.2102 9.55635 17.7502 9.64377C15.0408 10.1464 12.3418 10.6976 9.85186 11.9197C7.29007 13.1824 4.59031 15.5288 3.88431 18.4215C3.72051 19.1022 3.77377 19.8055 3.59383 20.4846C3.54784 20.6449 3.5075 20.8019 3.46716 20.9581C1.71869 22.0119 0.00248827 23.4469 0.00248827 25.6331C-0.119348 29.5529 4.25788 32.3687 7.66607 32.8592C9.2451 33.1012 11.861 33.1619 13.135 31.9398C14.1678 30.9596 12.4072 30.5339 11.6746 30.4683C10.2166 30.2255 8.75937 30.4092 7.29814 30.2255C6.08139 30.0402 4.92596 29.612 3.83267 28.9386C2.8604 28.3267 1.64365 27.4113 1.76387 26.0645C1.84052 25.0309 2.4844 24.092 3.21057 23.2511C3.28884 24.7452 3.74795 26.2514 4.68391 27.4218C5.61906 28.5889 7.78065 28.5549 9.14182 28.5719C9.76391 28.5784 11.3139 28.7395 11.5568 27.9584C11.7117 27.4615 11.1679 26.9961 11.0162 26.6229C11.5584 26.5218 12.1869 27.0843 12.7251 27.2073C13.6845 27.4323 14.7229 27.6719 15.7065 27.7747C17.0362 27.9099 18.5345 27.6492 19.8174 27.8451C19.2316 29.3311 24.9289 30.5994 23.7234 27.8451C24.7829 28.0677 25.9068 27.9592 26.9751 28.0483C27.3527 28.079 30.3099 28.0717 30.4156 27.7383C30.2663 28.2158 29.3949 28.2927 29.6579 29.0203C29.9089 29.7156 30.9989 29.7156 31.5912 29.6784C32.5763 29.6282 33.5381 29.6476 34.5346 29.5974C35.4455 29.5513 36.3621 29.5675 36.8156 28.7209C37.3094 27.8038 37.4127 26.3534 37.5111 25.3385C37.8516 21.7829 36.7026 18.033 35.7917 14.6376ZM23.5742 9.8793C20.9454 9.14843 22.2638 4.79234 24.6989 5.58392C25.3848 5.80569 25.76 6.53089 25.9141 7.19135C26.2949 8.83843 25.3751 10.3787 23.5742 9.8793ZM29.9089 10.1731C27.2744 9.4398 28.5945 5.08291 31.0336 5.87367C31.7203 6.09706 32.093 6.82227 32.2463 7.48434C32.6312 9.13305 31.7065 10.6733 29.9089 10.1731Z"></path>
     </svg>
