<?xml version="1.0" standalone="no"?>
<!DOCTYPE svg PUBLIC "-//W3C//DTD SVG 20010904//EN"
 "http://www.w3.org/TR/2001/REC-SVG-20010904/DTD/svg10.dtd">
<svg version="1.0" xmlns="http://www.w3.org/2000/svg"
 width="200.000000pt" height="200.000000pt" viewBox="0 0 200.000000 200.000000"
 preserveAspectRatio="xMidYMid meet">
<metadata>
Created by potrace 1.16, written by Peter Selinger 2001-2019
</metadata>
<g transform="translate(-50.0,285.0) scale(0.15,-0.15)"
fill="#00000" stroke="none">
<path d="M890 1668 c0 -7 7 -26 15 -41 l14 -28 -33 20 c-49 31 -66 25 -28 -10
l33 -30 -54 2 c-42 2 -62 -3 -85 -20 -17 -12 -47 -28 -66 -36 -40 -17 -42 -24
-20 -66 13 -26 17 -29 31 -17 15 12 16 9 10 -27 -4 -22 -7 -68 -7 -102 0 -73
-8 -77 -80 -40 -49 24 -75 66 -86 135 -6 40 -5 42 19 42 14 0 29 5 32 10 3 6
-1 10 -9 10 -18 0 -21 16 -6 25 16 10 12 28 -5 21 -10 -3 -15 1 -15 12 0 13
-2 14 -9 3 -7 -11 -10 -11 -15 0 -5 11 -7 11 -12 1 -5 -10 -9 -10 -20 -1 -15
12 -15 13 2 -38 3 -10 7 -47 8 -83 5 -117 79 -240 170 -285 44 -22 55 -32 64
-63 7 -21 26 -60 43 -86 29 -43 32 -55 30 -108 -2 -42 1 -58 9 -53 6 4 16 2
23 -4 8 -6 18 -6 27 -1 9 5 19 5 27 -2 10 -8 13 -6 13 7 0 14 5 16 26 11 23
-6 25 -4 19 11 -4 10 -10 28 -12 41 -5 21 -2 22 56 22 58 0 61 -1 61 -24 0
-14 -5 -28 -10 -31 -17 -10 -2 -24 20 -18 13 3 20 0 20 -8 0 -15 47 -18 68 -5
7 4 17 4 23 1 7 -5 9 14 7 57 -2 57 1 68 24 96 14 17 34 54 44 82 10 29 23 54
29 55 5 2 23 6 38 10 44 9 111 78 147 151 25 51 34 85 40 152 4 48 11 96 16
107 7 18 6 18 -9 6 -15 -12 -17 -11 -17 5 -1 18 -1 18 -14 1 -11 -14 -15 -15
-19 -5 -4 9 -6 7 -6 -4 -1 -11 -6 -15 -16 -12 -20 8 -19 -5 2 -28 15 -17 15
-18 -1 -18 -9 0 -14 -4 -11 -10 3 -5 15 -10 26 -10 48 0 3 -136 -60 -177 -19
-13 -49 -23 -67 -23 l-34 0 0 54 c0 29 -3 75 -7 102 -6 44 -5 48 10 36 14 -12
18 -9 31 17 22 42 20 49 -20 66 -19 8 -49 24 -66 36 -23 17 -43 22 -85 20
l-54 -2 33 30 c38 35 21 41 -28 10 l-33 -20 14 28 c34 64 4 71 -32 7 -12 -21
-25 -58 -29 -81 -7 -50 -27 -71 -48 -54 -8 6 -17 31 -20 54 -4 23 -17 60 -29
81 -23 40 -47 58 -47 34z m67 -207 c48 -72 17 -151 -60 -151 -75 0 -121 79
-81 140 27 40 47 51 84 48 26 -2 40 -11 57 -37z m195 27 c27 -23 48 -62 48
-91 0 -43 -49 -87 -96 -87 -88 0 -114 95 -46 173 18 20 71 23 94 5z"/>
</g>
</svg>
