<?xml version="1.0" standalone="no"?>
<!DOCTYPE svg PUBLIC "-//W3C//DTD SVG 20010904//EN"
 "http://www.w3.org/TR/2001/REC-SVG-20010904/DTD/svg10.dtd">
<svg version="1.0" xmlns="http://www.w3.org/2000/svg"
 width="400.000000pt" height="640.000000pt" viewBox="0 0 400.000000 640.000000"
 preserveAspectRatio="xMidYMid meet">
<metadata>
Created by potrace 1.16, written by Peter Selinger 2001-2019
</metadata>
<g transform="translate(0.000000,640.000000) scale(0.100000,-0.100000)"
fill="#7a7a7a" stroke="none">
<path d="M1097 5338 c6 -7 193 -251 417 -541 l407 -529 -119 -122 c-558 -578
-748 -1292 -526 -1978 113 -350 343 -717 653 -1043 l71 -75 71 75 c373 392
624 836 708 1251 126 620 -82 1253 -582 1770 l-118 122 407 529 c224 290 411
534 417 541 7 9 -174 12 -903 12 -729 0 -910 -3 -903 -12z m1586 -100 c-357
-468 -676 -878 -683 -878 -7 0 -203 251 -683 878 -8 9 131 12 683 12 552 0
691 -3 683 -12z m-572 -1165 c366 -374 562 -791 595 -1263 5 -85 -10 -327 -22
-340 -6 -5 -1144 1132 -1144 1144 0 14 128 206 188 281 56 71 261 285 272 285
3 0 53 -48 111 -107z m-39 -1160 l586 -588 -35 -110 c-19 -60 -37 -112 -39
-115 -5 -5 -1194 1181 -1194 1192 0 12 85 208 90 208 3 0 269 -264 592 -587z
m421 -1016 c-23 -45 -48 -90 -55 -100 -12 -15 -73 43 -575 545 l-563 563 14
85 c8 47 19 105 26 129 l12 44 591 -591 592 -592 -42 -83z m-133 -220 c0 -26
-207 -300 -308 -407 l-52 -55 -52 55 c-88 93 -207 249 -300 390 -214 324 -330
651 -353 995 l-7 100 536 -535 c295 -294 536 -539 536 -543z"/>
<path d="M1638 2040 c-27 -27 -30 -36 -25 -72 8 -57 36 -83 93 -83 38 0 50 5
70 28 82 95 -49 215 -138 127z"/>
</g>
</svg>
